<svg width="129" height="40" viewBox="0 0 129 40" fill="none" xmlns="http://www.w3.org/2000/svg">
<path d="M36.3965 27V12.9961H37.6562V25.7988H43.0176V27H36.3965ZM43.9219 14.5977V12.9961H45.3184V14.5977H43.9219ZM44.0195 27V17H45.2207V27H44.0195ZM50.168 27H49.5723L46.0273 17H47.2285L49.8359 24.5781L49.875 25.0957L49.9141 24.5781L52.5117 17H53.7129L50.168 27ZM57.0586 18.1426C56.8177 18.1426 56.5898 18.1882 56.375 18.2793C56.1667 18.3704 55.9844 18.4941 55.8281 18.6504C55.6719 18.8066 55.5482 18.9922 55.457 19.207C55.3659 19.4154 55.3203 19.64 55.3203 19.8809V27H54.1191V17H54.5195L55.1738 18.0156C55.4473 17.6445 55.7891 17.3516 56.1992 17.1367C56.6159 16.9154 57.0684 16.8047 57.5566 16.8047H58.2598V18.1426H57.0586ZM65.541 24.2559C65.541 24.6595 65.4629 25.0404 65.3066 25.3984C65.1569 25.7565 64.9486 26.069 64.6816 26.3359C64.4147 26.6029 64.1022 26.8145 63.7441 26.9707C63.3861 27.1204 63.0052 27.1953 62.6016 27.1953H61.8008C61.3971 27.1953 61.0163 27.1204 60.6582 26.9707C60.3001 26.8145 59.9876 26.6029 59.7207 26.3359C59.4538 26.069 59.2422 25.7565 59.0859 25.3984C58.9362 25.0404 58.8613 24.6595 58.8613 24.2559V19.7441C58.8613 19.3405 58.9362 18.9596 59.0859 18.6016C59.2422 18.2435 59.4538 17.931 59.7207 17.6641C59.9876 17.3971 60.3001 17.1888 60.6582 17.0391C61.0163 16.8828 61.3971 16.8047 61.8008 16.8047H62.6016C63.0052 16.8047 63.3861 16.8828 63.7441 17.0391C64.1022 17.1888 64.4147 17.3971 64.6816 17.6641C64.9486 17.931 65.1569 18.2435 65.3066 18.6016C65.4629 18.9596 65.541 19.3405 65.541 19.7441V24.2559ZM64.3398 19.6758C64.3398 19.4349 64.2943 19.2103 64.2031 19.002C64.112 18.7871 63.9883 18.6016 63.832 18.4453C63.6758 18.2891 63.4902 18.1654 63.2754 18.0742C63.0671 17.9831 62.8424 17.9375 62.6016 17.9375H61.8008C61.5599 17.9375 61.332 17.9831 61.1172 18.0742C60.9089 18.1654 60.7266 18.2891 60.5703 18.4453C60.4141 18.6016 60.2904 18.7871 60.1992 19.002C60.1081 19.2103 60.0625 19.4349 60.0625 19.6758V24.3242C60.0625 24.5651 60.1081 24.793 60.1992 25.0078C60.2904 25.2161 60.4141 25.3984 60.5703 25.5547C60.7266 25.7109 60.9089 25.8346 61.1172 25.9258C61.332 26.0169 61.5599 26.0625 61.8008 26.0625H62.6016C62.8424 26.0625 63.0671 26.0169 63.2754 25.9258C63.4902 25.8346 63.6758 25.7109 63.832 25.5547C63.9883 25.3984 64.112 25.2161 64.2031 25.0078C64.2943 24.793 64.3398 24.5651 64.3398 24.3242V19.6758ZM75.0195 23.7578C75.0195 24.2331 74.9219 24.679 74.7266 25.0957C74.5378 25.5124 74.2806 25.877 73.9551 26.1895C73.6361 26.502 73.2617 26.7493 72.832 26.9316C72.4089 27.1074 71.9596 27.1953 71.4844 27.1953H70.4785C70.0033 27.1953 69.5508 27.1074 69.1211 26.9316C68.6979 26.7493 68.3236 26.502 67.998 26.1895C67.679 25.877 67.4219 25.5124 67.2266 25.0957C67.0378 24.679 66.9434 24.2331 66.9434 23.7578V23.2012L68.2031 22.9961V23.7578C68.2031 24.0703 68.265 24.3633 68.3887 24.6367C68.5189 24.9036 68.6914 25.1413 68.9062 25.3496C69.1211 25.5514 69.3685 25.7109 69.6484 25.8281C69.9349 25.9453 70.2344 26.0039 70.5469 26.0039H71.4258C71.7383 26.0039 72.0345 25.9453 72.3145 25.8281C72.5944 25.7109 72.8418 25.5514 73.0566 25.3496C73.2715 25.1413 73.4408 24.9036 73.5645 24.6367C73.6947 24.3633 73.7598 24.0703 73.7598 23.7578V23.3379C73.7598 22.8561 73.6654 22.4557 73.4766 22.1367C73.2878 21.8177 73.0371 21.5475 72.7246 21.3262C72.4121 21.0983 72.0573 20.9062 71.6602 20.75C71.2695 20.5938 70.8659 20.4375 70.4492 20.2812C70.0326 20.125 69.6257 19.9525 69.2285 19.7637C68.8379 19.5749 68.4863 19.3405 68.1738 19.0605C67.8613 18.7741 67.6107 18.4258 67.4219 18.0156C67.2331 17.6055 67.1387 17.1009 67.1387 16.502V16.2383C67.1387 15.763 67.2266 15.3171 67.4023 14.9004C67.5846 14.4837 67.832 14.1191 68.1445 13.8066C68.457 13.4941 68.8216 13.25 69.2383 13.0742C69.6615 12.8919 70.1107 12.8008 70.5859 12.8008H71.4844C71.9596 12.8008 72.4056 12.8919 72.8223 13.0742C73.2389 13.25 73.6035 13.4941 73.916 13.8066C74.2285 14.1191 74.4727 14.4837 74.6484 14.9004C74.8307 15.3171 74.9219 15.763 74.9219 16.2383V16.5996L73.6621 16.8047V16.2383C73.6621 15.9258 73.6035 15.6361 73.4863 15.3691C73.3691 15.0957 73.2096 14.8581 73.0078 14.6562C72.806 14.4544 72.5684 14.2949 72.2949 14.1777C72.028 14.0605 71.7383 14.002 71.4258 14.002H70.6445C70.332 14.002 70.0391 14.0605 69.7656 14.1777C69.4987 14.2949 69.2611 14.4544 69.0527 14.6562C68.8509 14.8581 68.6914 15.0957 68.5742 15.3691C68.457 15.6361 68.3984 15.9258 68.3984 16.2383V16.502C68.3984 16.9512 68.4928 17.3288 68.6816 17.6348C68.8704 17.9408 69.1211 18.2044 69.4336 18.4258C69.7461 18.6406 70.0977 18.8294 70.4883 18.9922C70.8854 19.1484 71.2923 19.3112 71.709 19.4805C72.1257 19.6432 72.5293 19.8255 72.9199 20.0273C73.3171 20.2227 73.6719 20.4668 73.9844 20.7598C74.2969 21.0462 74.5475 21.3978 74.7363 21.8145C74.9251 22.2311 75.0195 22.7389 75.0195 23.3379V23.7578ZM82.6133 27L81.9492 26.0039C81.6758 26.362 81.334 26.6517 80.9238 26.873C80.5137 27.0879 80.0645 27.1953 79.5762 27.1953H79.2734C78.8698 27.1953 78.4889 27.1204 78.1309 26.9707C77.7728 26.8145 77.4603 26.6029 77.1934 26.3359C76.9264 26.069 76.7148 25.7565 76.5586 25.3984C76.4089 25.0404 76.334 24.6595 76.334 24.2559V24.1582C76.334 23.7546 76.4089 23.3737 76.5586 23.0156C76.7148 22.6576 76.9264 22.3451 77.1934 22.0781C77.4603 21.8112 77.7728 21.6029 78.1309 21.4531C78.4889 21.2969 78.8698 21.2188 79.2734 21.2188H81.8125V19.6758C81.8125 19.4349 81.7669 19.2103 81.6758 19.002C81.5846 18.7871 81.4609 18.6016 81.3047 18.4453C81.1484 18.2891 80.9629 18.1654 80.748 18.0742C80.5397 17.9831 80.3151 17.9375 80.0742 17.9375H79.3711C79.1302 17.9375 78.9023 17.9831 78.6875 18.0742C78.4792 18.1654 78.2969 18.2891 78.1406 18.4453C77.9844 18.6016 77.8607 18.7871 77.7695 19.002C77.6784 19.2103 77.6328 19.4349 77.6328 19.6758V20.0371L76.4316 19.8418V19.7441C76.4316 19.3405 76.5065 18.9596 76.6562 18.6016C76.8125 18.2435 77.0241 17.931 77.291 17.6641C77.5579 17.3971 77.8704 17.1888 78.2285 17.0391C78.5866 16.8828 78.9674 16.8047 79.3711 16.8047H80.0742C80.4779 16.8047 80.8587 16.8828 81.2168 17.0391C81.5749 17.1888 81.8874 17.3971 82.1543 17.6641C82.4212 17.931 82.6296 18.2435 82.7793 18.6016C82.9355 18.9596 83.0137 19.3405 83.0137 19.7441V27H82.6133ZM81.8125 22.1562H79.2734C79.0326 22.1562 78.8047 22.2018 78.5898 22.293C78.3815 22.3841 78.1992 22.5111 78.043 22.6738C77.8867 22.8301 77.763 23.0156 77.6719 23.2305C77.5807 23.4388 77.5352 23.6634 77.5352 23.9043V24.3242C77.5352 24.5651 77.5807 24.793 77.6719 25.0078C77.763 25.2161 77.8867 25.3984 78.043 25.5547C78.1992 25.7109 78.3815 25.8346 78.5898 25.9258C78.8047 26.0169 79.0326 26.0625 79.2734 26.0625H80.0742C80.3151 26.0625 80.5397 26.0169 80.748 25.9258C80.9629 25.8346 81.1484 25.7109 81.3047 25.5547C81.4609 25.3984 81.5846 25.2161 81.6758 25.0078C81.7669 24.793 81.8125 24.5651 81.8125 24.3242V22.1562ZM90.6953 27L90.0312 26.0039C89.7578 26.362 89.416 26.6517 89.0059 26.873C88.5957 27.0879 88.1465 27.1953 87.6582 27.1953H87.3555C86.9518 27.1953 86.571 27.1204 86.2129 26.9707C85.8548 26.8145 85.5423 26.6029 85.2754 26.3359C85.0085 26.069 84.7969 25.7565 84.6406 25.3984C84.4909 25.0404 84.416 24.6595 84.416 24.2559V24.1582C84.416 23.7546 84.4909 23.3737 84.6406 23.0156C84.7969 22.6576 85.0085 22.3451 85.2754 22.0781C85.5423 21.8112 85.8548 21.6029 86.2129 21.4531C86.571 21.2969 86.9518 21.2188 87.3555 21.2188H89.8945V19.6758C89.8945 19.4349 89.849 19.2103 89.7578 19.002C89.6667 18.7871 89.543 18.6016 89.3867 18.4453C89.2305 18.2891 89.0449 18.1654 88.8301 18.0742C88.6217 17.9831 88.3971 17.9375 88.1562 17.9375H87.4531C87.2122 17.9375 86.9844 17.9831 86.7695 18.0742C86.5612 18.1654 86.3789 18.2891 86.2227 18.4453C86.0664 18.6016 85.9427 18.7871 85.8516 19.002C85.7604 19.2103 85.7148 19.4349 85.7148 19.6758V20.0371L84.5137 19.8418V19.7441C84.5137 19.3405 84.5885 18.9596 84.7383 18.6016C84.8945 18.2435 85.1061 17.931 85.373 17.6641C85.64 17.3971 85.9525 17.1888 86.3105 17.0391C86.6686 16.8828 87.0495 16.8047 87.4531 16.8047H88.1562C88.5599 16.8047 88.9408 16.8828 89.2988 17.0391C89.6569 17.1888 89.9694 17.3971 90.2363 17.6641C90.5033 17.931 90.7116 18.2435 90.8613 18.6016C91.0176 18.9596 91.0957 19.3405 91.0957 19.7441V27H90.6953ZM89.8945 22.1562H87.3555C87.1146 22.1562 86.8867 22.2018 86.6719 22.293C86.4635 22.3841 86.2812 22.5111 86.125 22.6738C85.9688 22.8301 85.8451 23.0156 85.7539 23.2305C85.6628 23.4388 85.6172 23.6634 85.6172 23.9043V24.3242C85.6172 24.5651 85.6628 24.793 85.7539 25.0078C85.8451 25.2161 85.9688 25.3984 86.125 25.5547C86.2812 25.7109 86.4635 25.8346 86.6719 25.9258C86.8867 26.0169 87.1146 26.0625 87.3555 26.0625H88.1562C88.3971 26.0625 88.6217 26.0169 88.8301 25.9258C89.0449 25.8346 89.2305 25.7109 89.3867 25.5547C89.543 25.3984 89.6667 25.2161 89.7578 25.0078C89.849 24.793 89.8945 24.5651 89.8945 24.3242V22.1562ZM100.574 23.7578C100.574 24.2331 100.477 24.679 100.281 25.0957C100.092 25.5124 99.8353 25.877 99.5098 26.1895C99.1908 26.502 98.8164 26.7493 98.3867 26.9316C97.9635 27.1074 97.5143 27.1953 97.0391 27.1953H96.0332C95.5579 27.1953 95.1055 27.1074 94.6758 26.9316C94.2526 26.7493 93.8783 26.502 93.5527 26.1895C93.2337 25.877 92.9766 25.5124 92.7812 25.0957C92.5924 24.679 92.498 24.2331 92.498 23.7578V23.2012L93.7578 22.9961V23.7578C93.7578 24.0703 93.8197 24.3633 93.9434 24.6367C94.0736 24.9036 94.2461 25.1413 94.4609 25.3496C94.6758 25.5514 94.9232 25.7109 95.2031 25.8281C95.4896 25.9453 95.7891 26.0039 96.1016 26.0039H96.9805C97.293 26.0039 97.5892 25.9453 97.8691 25.8281C98.1491 25.7109 98.3965 25.5514 98.6113 25.3496C98.8262 25.1413 98.9954 24.9036 99.1191 24.6367C99.2493 24.3633 99.3145 24.0703 99.3145 23.7578V23.3379C99.3145 22.8561 99.2201 22.4557 99.0312 22.1367C98.8424 21.8177 98.5918 21.5475 98.2793 21.3262C97.9668 21.0983 97.612 20.9062 97.2148 20.75C96.8242 20.5938 96.4206 20.4375 96.0039 20.2812C95.5872 20.125 95.1803 19.9525 94.7832 19.7637C94.3926 19.5749 94.041 19.3405 93.7285 19.0605C93.416 18.7741 93.1654 18.4258 92.9766 18.0156C92.7878 17.6055 92.6934 17.1009 92.6934 16.502V16.2383C92.6934 15.763 92.7812 15.3171 92.957 14.9004C93.1393 14.4837 93.3867 14.1191 93.6992 13.8066C94.0117 13.4941 94.3763 13.25 94.793 13.0742C95.2161 12.8919 95.6654 12.8008 96.1406 12.8008H97.0391C97.5143 12.8008 97.9603 12.8919 98.377 13.0742C98.7936 13.25 99.1582 13.4941 99.4707 13.8066C99.7832 14.1191 100.027 14.4837 100.203 14.9004C100.385 15.3171 100.477 15.763 100.477 16.2383V16.5996L99.2168 16.8047V16.2383C99.2168 15.9258 99.1582 15.6361 99.041 15.3691C98.9238 15.0957 98.7643 14.8581 98.5625 14.6562C98.3607 14.4544 98.123 14.2949 97.8496 14.1777C97.5827 14.0605 97.293 14.002 96.9805 14.002H96.1992C95.8867 14.002 95.5938 14.0605 95.3203 14.1777C95.0534 14.2949 94.8158 14.4544 94.6074 14.6562C94.4056 14.8581 94.2461 15.0957 94.1289 15.3691C94.0117 15.6361 93.9531 15.9258 93.9531 16.2383V16.502C93.9531 16.9512 94.0475 17.3288 94.2363 17.6348C94.4251 17.9408 94.6758 18.2044 94.9883 18.4258C95.3008 18.6406 95.6523 18.8294 96.043 18.9922C96.4401 19.1484 96.847 19.3112 97.2637 19.4805C97.6803 19.6432 98.084 19.8255 98.4746 20.0273C98.8717 20.2227 99.2266 20.4668 99.5391 20.7598C99.8516 21.0462 100.102 21.3978 100.291 21.8145C100.48 22.2311 100.574 22.7389 100.574 23.3379V23.7578Z" fill="black"/>
<g clip-path="url(#clip0_8402_59)">
<path d="M23.25 16.625H14.6625L12 8.75L9.3375 16.625H0.75L7.6875 21.5L5.025 29.375L12 24.5L18.9375 29.375L16.275 21.5L23.25 16.625Z" fill="#6B7280"/>
<path d="M17.325 15.6124L18.825 11.3374L14.8875 14.0374L15.45 15.6124H17.325ZM10.4625 26.7499L12 31.2499L13.5375 26.7499L12 25.6999L10.4625 26.7499ZM19.0125 20.8624L17.5875 21.8374L18.1875 23.6374H23.025L19.0125 20.8624ZM9.11247 14.0374L5.17498 11.3374L6.67497 15.6124H8.54997L9.11247 14.0374ZM4.98748 20.8624L0.974976 23.6374H5.81248L6.41248 21.8374L4.98748 20.8624Z" fill="black"/>
</g>
<defs>
<clipPath id="clip0_8402_59">
<rect width="24" height="24" fill="white" transform="translate(0 8)"/>
</clipPath>
</defs>
</svg>
